# xmcd
#
# Track frame offsets:
#	150
#	16500
#	37225
#	52800
#	65470
#	83340
#	97917
#	112970
#	124062
#	140362
#	153085
#	170370
#
# Disc length: 2556 seconds
#
# Revision: 1
# Processed by: cddbd v1.5.2PL0 Copyright (c) Steve Scherf et al.
# Submitted via: audiograbber 1.83.01
#
DISCID=8209fa0c
DTITLE=Two Bones And A Pick - Butter Up 'N' Go
DYEAR=1900
DGENRE=Blues
TTITLE0=Butter Up 'N' Go
TTITLE1=Shake It All Night Long
TTITLE2=Number Nine Train
TTITLE3=Stompin' With Bill
TTITLE4=Big Bad and Blue
TTITLE5=The Misfit
TTITLE6=Para Jose
TTITLE7=Honey Boy
TTITLE8=Down The Line
TTITLE9=Mama Rosin
TTITLE10=Mother - In Law Blues
TTITLE11=You Gotta Cry
EXTD=
EXTT0=
EXTT1=
EXTT2=
EXTT3=
EXTT4=
EXTT5=
EXTT6=
EXTT7=
EXTT8=
EXTT9=
EXTT10=
EXTT11=
PLAYORDER=
